<?xml version="1.0" standalone="no"?>
<!DOCTYPE svg PUBLIC "-//W3C//DTD SVG 20010904//EN"
 "http://www.w3.org/TR/2001/REC-SVG-20010904/DTD/svg10.dtd">
<svg version="1.0" xmlns="http://www.w3.org/2000/svg"
 width="90.000000pt" height="90.000000pt" viewBox="0 0 500.000000 500.000000"
 preserveAspectRatio="xMidYMid meet">

<g transform="translate(0.000000,500.000000) scale(0.100000,-0.100000)"
fill="#F9FEFF" stroke="#fffff">
<path d="M2280 4610 c-407 -45 -796 -207 -1115 -465 -99 -80 -247 -227 -320
-318 -196 -243 -356 -584 -420 -893 -49 -238 -57 -537 -20 -764 99 -602 458
-1146 963 -1459 193 -120 449 -228 652 -275 472 -108 977 -49 1409 165 599
296 1008 824 1145 1477 141 670 -66 1387 -544 1885 -275 288 -619 490 -999
588 -63 16 -157 36 -210 45 -118 18 -426 26 -541 14z m580 -190 c788 -152
1395 -755 1555 -1544 14 -68 25 -126 25 -130 0 -3 -13 -6 -28 -6 -48 0 -125
-28 -164 -60 -51 -43 -78 -103 -78 -177 0 -133 77 -219 214 -237 27 -3 51 -8
53 -10 8 -8 -50 -265 -82 -363 -70 -213 -210 -464 -350 -633 -296 -355 -669
-578 -1132 -677 -120 -26 -144 -27 -373 -27 -229 0 -253 1 -375 27 -706 150
-1256 633 -1479 1299 -30 90 -86 328 -86 366 0 6 21 14 48 18 132 19 221 109
222 224 0 131 -76 221 -207 243 l-64 11 6 41 c30 200 89 387 179 570 200 408
513 717 921 911 182 86 374 141 620 178 17 2 127 3 245 1 173 -2 238 -7 330
-25z m-2210 -1805 c102 -53 92 -204 -17 -234 -49 -14 -89 -4 -123 31 -99 98
17 267 140 203z m3831 -21 c16 -16 34 -45 41 -65 21 -71 -45 -154 -122 -154
-71 0 -139 79 -125 145 8 35 49 88 79 101 37 15 96 3 127 -27z"/>
<path d="M2325 4343 c-218 -24 -432 -83 -620 -172 -492 -233 -863 -683 -996
-1208 -16 -63 -29 -119 -29 -123 0 -4 20 -15 45 -24 66 -26 139 -97 176 -172
61 -124 40 -267 -56 -373 -20 -22 -66 -55 -101 -72 -35 -18 -64 -35 -64 -38 0
-23 45 -184 75 -271 213 -610 735 -1067 1370 -1199 461 -95 947 -9 1346 239
243 151 473 385 616 628 100 171 174 353 213 528 l17 81 -52 22 c-64 27 -146
109 -178 178 -33 72 -31 198 4 273 34 73 105 142 174 171 40 16 54 27 51 38
-3 9 -17 63 -31 121 -77 310 -245 601 -484 841 -267 266 -610 445 -979 510
-114 20 -401 33 -497 22z m290 -135 c1 -2 -2 -38 -8 -81 -5 -43 -8 -80 -6 -82
2 -2 32 -7 65 -10 l61 -7 7 83 c4 46 8 84 9 85 1 1 32 0 70 -3 79 -7 75 14 47
-207 -11 -88 -20 -180 -20 -204 l0 -45 -66 6 c-36 2 -68 7 -71 10 -3 4 -1 39
5 79 6 40 8 76 4 79 -4 4 -34 9 -68 12 l-61 6 -7 -81 c-4 -45 -8 -83 -9 -84
-1 -1 -31 1 -67 5 -61 6 -65 7 -64 31 3 53 36 406 39 416 2 7 24 8 70 3 38 -5
69 -10 70 -11z m-342 -15 c3 -5 7 -29 11 -54 l7 -47 -51 -7 c-41 -6 -50 -10
-46 -23 3 -10 13 -51 22 -92 9 -41 25 -108 36 -148 11 -41 18 -75 16 -77 -2
-2 -32 -10 -66 -18 -46 -11 -64 -12 -67 -3 -2 6 -13 57 -25 113 -11 55 -27
125 -36 153 -17 58 -7 54 -100 33 -20 -4 -23 1 -29 47 -4 28 -5 54 -2 57 8 7
276 71 304 72 12 1 24 -2 26 -6z m886 -109 c34 -15 61 -30 61 -34 0 -3 -24
-60 -53 -126 -30 -65 -66 -153 -82 -194 -15 -41 -30 -78 -34 -82 -5 -5 -117
34 -128 46 -3 2 8 27 22 56 21 41 100 238 138 343 8 21 4 22 76 -9z m-1241
-307 c102 -100 101 -91 14 -138 l-43 -24 -25 29 -25 28 -47 -29 c-47 -30 -52
-41 -37 -89 6 -18 -2 -26 -50 -54 -31 -18 -58 -31 -60 -29 -6 7 -118 450 -114
453 2 2 35 21 74 44 l69 41 76 -71 c41 -40 117 -112 168 -161z m1675 50 c42
-32 77 -64 77 -70 0 -7 -15 -28 -33 -45 l-33 -32 -72 55 -71 56 -17 -26 c-11
-16 -14 -29 -8 -33 72 -49 104 -74 104 -80 -1 -4 -16 -24 -35 -45 l-34 -39
-54 41 c-29 23 -56 41 -59 41 -3 0 -13 -11 -21 -24 -16 -23 -15 -24 59 -76 40
-29 74 -56 74 -59 -1 -3 -16 -23 -35 -45 l-34 -38 -126 92 c-69 51 -125 95
-125 97 0 2 28 40 63 86 34 45 93 126 131 179 l69 98 51 -37 c28 -21 86 -63
129 -96z m-2123 -272 c69 -43 131 -84 139 -91 11 -10 8 -20 -19 -58 -19 -25
-36 -46 -40 -46 -3 0 -33 19 -65 43 -74 53 -135 91 -135 83 0 -4 25 -44 56
-91 l57 -85 -28 -40 c-15 -22 -34 -40 -41 -40 -7 0 -37 9 -66 21 -29 12 -71
27 -93 35 l-40 14 50 -47 c28 -27 70 -64 94 -84 l45 -36 -34 -46 c-19 -26 -38
-43 -44 -40 -40 25 -324 298 -319 307 18 29 86 116 92 116 4 0 51 -20 106 -44
55 -24 102 -43 103 -41 2 2 -29 44 -68 94 l-72 91 48 64 47 65 51 -33 c28 -18
107 -68 176 -111z m2416 -44 c-3 -4 -61 -45 -130 -90 -68 -46 -127 -89 -130
-98 -8 -20 20 -70 44 -78 24 -8 18 -11 161 92 64 45 119 83 122 83 7 0 77
-101 77 -111 0 -3 -63 -48 -139 -98 -158 -105 -192 -116 -258 -83 -109 56
-171 218 -110 286 12 14 82 68 156 120 l134 95 39 -55 c21 -30 36 -59 34 -63z
m-1271 99 c109 -13 185 -32 290 -73 79 -31 80 -31 45 -38 -34 -6 -34 -6 11 -8
46 -1 79 -24 107 -76 6 -11 12 -15 12 -9 0 6 -10 24 -22 40 -29 37 -10 29 75
-28 187 -127 354 -354 427 -581 l22 -67 99 0 99 0 0 -50 0 -50 -215 0 -215 0
0 50 0 50 61 0 c70 0 68 -12 17 125 -36 98 -42 108 -98 181 -55 73 -186 213
-175 188 56 -133 133 -402 141 -494 3 -36 14 -85 24 -110 25 -63 46 -426 26
-458 -4 -7 -24 -12 -44 -12 -20 0 -156 -14 -302 -30 -383 -44 -647 -70 -699
-70 -35 0 -65 11 -126 44 -71 38 -81 47 -86 77 l-6 34 -2 -32 c-2 -47 -31 -33
-33 16 -1 35 -1 35 -8 -9 l-7 -45 -3 40 c-3 39 -3 39 -9 9 l-6 -31 -190 58
-190 57 -6 63 c-4 35 -11 136 -15 224 -5 88 -10 141 -12 118 l-3 -43 -190 0
-189 0 0 50 0 50 98 0 98 0 18 58 c83 265 274 506 506 637 135 76 279 125 426
144 97 12 146 12 249 1z m-995 -1309 c0 -22 3 -46 6 -55 5 -13 -2 -16 -45 -16
-28 0 -51 -4 -51 -10 0 -18 48 -138 79 -197 17 -32 31 -63 31 -69 0 -17 230
-248 280 -281 25 -17 97 -58 160 -93 111 -60 118 -62 230 -76 63 -7 147 -14
186 -14 139 0 321 43 448 107 47 24 53 24 108 13 96 -21 91 -31 -57 -105 -86
-43 -157 -67 -275 -97 -36 -8 -114 -13 -230 -12 -158 1 -185 3 -275 28 -367
100 -662 379 -776 734 l-23 72 -98 0 -98 0 0 55 0 55 200 0 200 0 0 -39z
m2160 -16 l0 -55 -99 0 -98 0 -33 -92 c-29 -85 -87 -204 -123 -252 -12 -17
-15 -10 -19 69 -6 80 -3 95 22 159 48 121 48 116 -1 116 -28 0 -46 6 -55 18
-14 18 -19 74 -7 85 3 4 98 7 210 7 l203 0 0 -55z m116 -138 c65 -30 151 -66
190 -81 l72 -27 -25 -63 c-29 -72 -21 -69 -186 -82 -49 -4 -85 -10 -80 -15 4
-4 49 -23 98 -42 58 -23 89 -40 87 -49 -2 -7 -10 -32 -19 -55 l-15 -42 -57 26
c-46 21 -174 72 -308 124 l-22 8 26 64 26 65 51 6 c28 3 84 9 124 12 40 4 70
10 65 14 -4 4 -47 22 -95 41 -49 18 -88 38 -88 44 0 12 30 105 34 105 2 0 56
-24 122 -53z m-2628 -74 c22 -65 42 -125 44 -132 3 -16 -66 -45 -87 -37 -6 2
-20 32 -30 66 -18 60 -19 62 -49 56 -16 -4 -32 -8 -34 -11 -3 -2 5 -30 16 -60
l22 -56 -25 -9 c-13 -5 -36 -10 -51 -12 -24 -3 -29 2 -44 47 -19 56 -22 57
-98 26 l-53 -21 -15 35 c-8 20 -17 49 -20 64 -5 26 -3 29 28 35 18 4 103 33
188 66 85 32 157 59 160 60 3 0 25 -53 48 -117z m566 86 c33 -15 40 -51 37
-199 l-1 -55 -37 38 c-38 37 -38 38 -41 132 -4 100 -2 104 42 84z m1376 -15
c-123 -19 -463 -54 -507 -53 -76 2 447 66 542 66 42 0 36 -2 -35 -13z m145
-21 c4 -10 9 -57 12 -104 l6 -86 -48 -7 c-26 -4 -49 -6 -51 -3 -6 5 14 179 22
201 8 22 50 20 59 -1z m-1135 -23 c33 -17 61 -20 172 -22 131 -1 132 -1 48 -8
-47 -4 -101 -13 -121 -19 -43 -13 -48 -29 -50 -165 l-2 -91 -8 112 c-4 62 -13
121 -18 132 -9 16 -7 20 7 24 14 4 14 5 -3 6 -19 1 -88 50 -72 51 4 0 25 -9
47 -20z m1002 -37 c-9 -15 -25 -17 -134 -15 -157 4 -451 -28 -590 -63 -25 -6
-28 -5 -28 19 0 15 6 26 13 26 7 0 65 7 128 16 148 20 613 52 617 42 2 -4 -1
-15 -6 -25z m-599 20 c-13 -2 -35 -2 -50 0 -16 2 -5 4 22 4 28 0 40 -2 28 -4z
m-509 -60 c-4 -10 -13 -47 -20 -83 l-12 -65 -1 60 c-1 40 4 68 15 83 18 26 29
29 18 5z m287 -73 c45 -129 45 -130 7 -130 -18 0 -49 3 -69 6 l-36 6 -7 80
c-8 92 6 121 53 116 23 -3 30 -13 52 -78z m689 43 c0 -16 -4 -33 -8 -39 -4 -6
-77 -21 -162 -33 -85 -12 -169 -24 -186 -27 -31 -6 -32 -4 -39 36 -4 23 -5 44
-2 46 5 6 302 41 360 43 34 1 37 -1 37 -26z m-1381 -47 c-9 -8 -10 -7 -5 7 3
10 7 24 7 30 1 7 3 4 6 -7 3 -10 -1 -23 -8 -30z m205 -5 c19 -16 12 -31 -15
-31 -16 0 -19 7 -18 43 0 32 2 37 9 22 4 -12 15 -27 24 -34z m1296 -13 c0 -7
-4 -18 -8 -24 -10 -17 -247 -53 -421 -65 -174 -13 -267 -6 -274 20 -4 16 7 17
143 13 166 -5 298 8 445 42 55 13 103 24 108 25 4 0 7 -5 7 -11z m-1041 -98
c0 -9 -4 -8 -9 5 -5 11 -9 27 -9 35 0 9 4 8 9 -5 5 -11 9 -27 9 -35z m-799
-10 c62 -32 120 -121 120 -185 0 -76 -58 -147 -158 -193 -92 -42 -188 -12
-247 77 -51 76 -46 155 15 224 78 88 187 119 270 77z m790 -61 c0 -20 -24 -26
-35 -9 -4 6 -4 17 -1 25 7 20 36 7 36 -16z m1546 -54 c54 -31 109 -93 124
-140 37 -112 -52 -251 -169 -263 -112 -10 -246 115 -244 229 1 82 71 175 150
199 39 12 91 3 139 -25z m-2006 -219 c103 -76 134 -116 127 -168 -7 -56 -40
-94 -100 -116 l-52 -20 -3 -81 c-3 -93 -3 -93 -87 -47 -43 23 -42 21 -34 131
5 67 -16 71 -54 10 -16 -25 -31 -45 -35 -45 -8 0 -101 64 -102 70 0 3 17 26
38 51 20 25 73 98 116 162 44 65 85 117 90 116 6 0 49 -29 96 -63z m1697 -196
c52 -80 97 -150 100 -156 4 -11 -94 -81 -101 -73 -2 2 -19 29 -37 59 -18 30
-65 100 -104 155 -39 55 -74 105 -78 112 -5 8 11 25 45 48 50 33 54 35 66 18
7 -10 56 -83 109 -163z m-268 23 c16 -56 14 -60 -26 -70 -48 -12 -48 -17 17
-180 28 -69 49 -127 48 -128 -2 -1 -29 -12 -60 -23 l-57 -21 -12 37 c-19 60
-90 236 -98 245 -4 4 -25 0 -46 -8 -20 -9 -41 -13 -45 -8 -10 11 -33 83 -28
88 9 9 264 104 280 104 11 1 21 -11 27 -36z m-1040 -33 c2 0 1 -51 -2 -112
l-7 -113 43 67 c23 37 50 81 59 97 l17 30 67 -19 c36 -11 68 -21 69 -22 4 -4
-73 -399 -78 -404 -4 -5 -107 25 -107 31 0 2 11 50 25 106 13 57 23 104 21
106 -2 2 -29 -32 -61 -76 -31 -45 -57 -81 -58 -81 -1 0 -22 6 -47 14 l-45 13
-5 99 -5 99 -34 -100 c-19 -55 -37 -103 -40 -107 -6 -7 -84 12 -96 23 -4 5
125 353 141 381 2 3 35 -2 72 -13 37 -10 69 -19 71 -19z m658 -256 l71 -199
-56 -8 c-71 -9 -78 -6 -85 32 -7 33 -22 38 -85 25 -24 -5 -31 -12 -36 -39 -6
-31 -9 -33 -63 -39 -31 -4 -58 -4 -61 -1 -4 4 66 342 84 407 4 13 19 18 72 20
37 2 72 3 77 3 6 -1 42 -91 82 -201z"/>
<path d="M1683 3780 l20 -69 28 15 c16 8 29 17 29 20 0 10 -81 104 -90 104 -4
0 1 -31 13 -70z"/>
<path d="M2345 3499 c-79 -12 -198 -47 -165 -49 14 0 174 7 355 17 288 16 318
19 235 24 -216 14 -368 17 -425 8z"/>
<path d="M2058 3443 c17 -2 47 -2 65 0 17 2 3 4 -33 4 -36 0 -50 -2 -32 -4z"/>
<path d="M1970 3428 c0 -10 3 -18 8 -18 4 0 17 -15 30 -33 24 -36 30 -103 17
-182 -5 -34 -4 -38 7 -25 21 23 75 60 121 81 27 12 35 19 22 19 -11 0 -39 22
-63 50 -24 28 -63 63 -85 77 -23 14 -45 31 -49 37 -5 7 -8 4 -8 -6z"/>
<path d="M3020 3422 c0 -7 7 -28 14 -47 l15 -35 -42 -2 c-32 -1 -27 -3 23 -7
62 -6 59 -7 -65 -16 l-130 -10 129 -5 128 -5 34 -40 34 -40 -14 35 c-7 19 -17
46 -20 60 l-7 25 15 -25 c17 -28 22 -19 6 11 -6 10 -17 19 -25 19 -8 0 -15 6
-15 13 0 8 -3 8 -9 -2 -7 -11 -16 -3 -40 34 -17 27 -31 43 -31 37z"/>
<path d="M1889 3328 c-24 -29 -76 -87 -115 -128 -67 -71 -152 -180 -140 -180
4 0 262 300 278 324 4 6 9 8 11 6 3 -3 20 -194 38 -425 19 -231 35 -411 37
-401 2 10 -11 203 -29 428 -27 349 -30 411 -18 419 12 7 11 9 -2 9 -9 0 -36
-24 -60 -52z"/>
<path d="M1983 3290 c0 -41 2 -58 4 -37 2 20 2 54 0 75 -2 20 -4 3 -4 -38z"/>
<path d="M2823 3323 c20 -2 54 -2 75 0 20 2 3 4 -38 4 -41 0 -58 -2 -37 -4z"/>
<path d="M2663 3313 c20 -2 54 -2 75 0 20 2 3 4 -38 4 -41 0 -58 -2 -37 -4z"/>
<path d="M2518 3303 c18 -2 45 -2 60 0 15 2 0 4 -33 4 -33 0 -45 -2 -27 -4z"/>
<path d="M2398 3293 c18 -2 45 -2 60 0 15 2 0 4 -33 4 -33 0 -45 -2 -27 -4z"/>
<path d="M2763 3293 c9 -2 25 -2 35 0 9 3 1 5 -18 5 -19 0 -27 -2 -17 -5z"/>
<path d="M2288 3283 c12 -2 32 -2 45 0 12 2 2 4 -23 4 -25 0 -35 -2 -22 -4z"/>
<path d="M2213 3273 c9 -2 25 -2 35 0 9 3 1 5 -18 5 -19 0 -27 -2 -17 -5z"/>
<path d="M2105 3205 l-30 -25 36 14 c19 8 40 11 46 8 7 -4 16 -30 21 -57 l10
-50 1 45 c2 94 -25 114 -84 65z"/>
<path d="M1993 3105 c0 -38 2 -53 4 -32 2 20 2 52 0 70 -2 17 -4 1 -4 -38z"/>
<path d="M2890 3070 c-130 -8 -412 -33 -560 -51 -47 -6 -96 -18 -110 -27 -28
-19 -110 -41 -152 -42 -27 0 -28 2 -30 58 -1 47 -2 42 -8 -33 -13 -163 -19
-301 -12 -260 l8 40 7 -31 c7 -26 12 -30 32 -26 15 2 25 0 25 -7 0 -15 89 -71
112 -71 19 0 25 25 8 35 -5 3 -11 21 -11 38 l-2 32 -6 -33 -6 -33 -30 28 -31
28 4 103 c2 77 7 102 17 102 7 0 16 -6 18 -12 3 -8 6 -6 6 5 1 10 9 17 20 17
16 0 19 -11 25 -92 4 -51 9 -121 13 -155 l6 -63 59 0 c64 0 732 54 868 71 130
15 125 12 121 89 -2 41 -57 232 -77 273 -14 27 -16 27 -102 25 -48 0 -143 -4
-212 -8z"/>
<path d="M1604 2988 l-19 -23 23 19 c21 18 27 26 19 26 -2 0 -12 -10 -23 -22z"/>
<path d="M2003 2925 c0 -38 2 -53 4 -32 2 20 2 52 0 70 -2 17 -4 1 -4 -38z"/>
<path d="M1561 2876 c-38 -103 -38 -106 3 -106 l36 0 0 74 c0 41 -4 77 -9 81
-5 3 -19 -19 -30 -49z"/>
<path d="M2172 2865 c0 -16 2 -22 5 -12 2 9 2 23 0 30 -3 6 -5 -1 -5 -18z"/>
<path d="M2183 2785 c0 -27 2 -38 4 -22 2 15 2 37 0 50 -2 12 -4 0 -4 -28z"/>
<path d="M2051 2664 c0 -11 3 -14 6 -6 3 7 2 16 -1 19 -3 4 -6 -2 -5 -13z"/>
<path d="M3260 2665 c0 -6 5 -30 11 -54 16 -69 4 -100 -45 -121 -62 -27 -180
-48 -396 -70 l-195 -19 160 5 c310 10 498 47 511 101 9 32 -12 134 -31 152 -8
9 -15 11 -15 6z"/>
<path d="M2978 2643 c7 -3 16 -2 19 1 4 3 -2 6 -13 5 -11 0 -14 -3 -6 -6z"/>
<path d="M2063 2605 c0 -22 2 -30 4 -17 2 12 2 30 0 40 -3 9 -5 -1 -4 -23z"/>
<path d="M2825 2634 c-16 -2 -82 -8 -145 -14 -158 -15 -363 -40 -372 -46 -12
-7 -10 -72 2 -79 6 -3 10 3 10 14 0 11 11 28 24 36 22 15 269 55 511 83 44 5
62 9 40 9 -22 0 -53 -1 -70 -3z"/>
<path d="M2023 2560 c0 -41 2 -58 4 -37 2 20 2 54 0 75 -2 20 -4 3 -4 -38z"/>
<path d="M2221 2574 c13 -35 40 -300 40 -404 0 -61 2 -71 12 -55 16 30 21 175
8 298 -11 106 -25 151 -56 177 -14 12 -15 10 -4 -16z"/>
<path d="M2074 2440 c0 -69 1 -97 3 -62 2 34 2 90 0 125 -2 34 -3 6 -3 -63z"/>
<path d="M2003 2445 c0 -33 2 -45 4 -27 2 18 2 45 0 60 -2 15 -4 0 -4 -33z"/>
<path d="M2033 2375 c0 -38 2 -53 4 -32 2 20 2 52 0 70 -2 17 -4 1 -4 -38z"/>
<path d="M3160 2404 c-73 -12 -93 -18 -201 -63 -54 -23 -79 -38 -82 -53 -5
-17 -11 -20 -39 -15 -25 4 -55 -4 -113 -29 l-80 -35 100 6 c116 7 282 28 408
51 l87 16 0 57 c0 31 -4 61 -8 66 -5 7 -28 7 -72 -1z"/>
<path d="M2553 2393 c9 -2 25 -2 35 0 9 3 1 5 -18 5 -19 0 -27 -2 -17 -5z"/>
<path d="M2013 2320 c0 -36 2 -50 4 -32 2 17 2 47 0 65 -2 17 -4 3 -4 -33z"/>
<path d="M2880 2369 c-41 -4 -154 -13 -250 -19 -252 -15 -240 -12 -240 -63 0
-87 1 -87 104 -87 86 0 98 2 209 47 64 26 117 52 117 59 0 6 19 14 43 17 23 3
67 16 97 30 63 29 56 31 -80 16z"/>
<path d="M1249 1691 c-48 -30 -89 -75 -89 -97 0 -7 11 -26 24 -41 l25 -28 44
23 c101 53 141 117 99 155 -26 24 -52 21 -103 -12z"/>
<path d="M3547 1592 c-19 -21 -21 -45 -7 -73 17 -31 110 -99 135 -99 21 0 65
41 65 61 0 14 -53 71 -94 100 -45 33 -76 37 -99 11z"/>
<path d="M1624 1373 c-35 -49 -36 -51 -9 -69 23 -15 27 -15 49 -1 30 20 38 50
19 76 -19 28 -35 26 -59 -6z"/>
<path d="M2591 1052 c-16 -78 -15 -82 20 -82 29 0 30 1 24 32 -4 18 -13 48
-20 68 l-12 35 -12 -53z"/>
</g>
</svg>
